<svg xmlns="http://www.w3.org/2000/svg" viewBox="0 0 470 120" width="100%" height="100%">
  <defs>
    <linearGradient id="darkKeycapHT" x1="0%" y1="0%" x2="100%" y2="100%">
      <stop offset="0%" stop-color="#18181b"/>
      <stop offset="100%" stop-color="#09090b"/>
    </linearGradient>
    <linearGradient id="emeraldPillHT" x1="0%" y1="0%" x2="100%" y2="100%">
      <stop offset="0%" stop-color="#10b981"/>
      <stop offset="100%" stop-color="#059669"/>
    </linearGradient>
  </defs>

  <g id="HorizontalSvgTight">
    <!-- Standalone Keycap Box -->
    <rect x="10" y="10" width="100" height="100" rx="22" fill="url(#darkKeycapHT)" stroke="#27272a" stroke-width="2"/>
    
    <!-- Vector Bangla Letter "ত" + Cursor "|" -->
    <g transform="translate(18, 18) scale(0.108)">
      <path fill="#ffffff" d="M531.13,414.42c.85,86.97-74.35,161.83-161.53,159.65-112.99-1.59-192.82-122.93-185.34-228.83.19-14.35,6.58-28.41,21.58-31.66,13.07-3.39,28.4-5.86,37.52-1.24,5.55,3.76,5.15,9.24,4.89,17.5-10.06,75.29,47.34,184.21,133.83,174.77,26.2-3.11,47.83-15.64,64.06-37.97,18.66-26.38,33.84-56.7,22.4-88.56-9.16-24.05-40.51-39.96-63.56-27.12-3.19,2.65-4.05,6.75-4.16,10.82-.03,13.2,6.57,32.23-4.21,44.36-10.32,12.37-29.46,17.23-46.66,13.25-41.99-9.84-49.53-70.92-25.85-101.38,28.53-39.42,79.58-57.66,125.48-39.15,51.95,20.75,81.5,80.2,81.55,134.61v.95Z"/>
      <path fill="#ffffff" d="M137.79,204.39h422.02c1.8,0,3.26,1.46,3.26,3.26v50.98H142.8c-2.77,0-5.01-2.25-5.01-5.01v-49.23h0Z"/>
      <rect x="601.28" y="208.08" width="39.45" height="341.45" rx="8" fill="#10b981"/>
    </g>

    <!-- Typography 'typebangla' -->
    <text x="126" y="73" fill="#ffffff" font-family="Inter, system-ui, -apple-system, sans-serif" font-weight="900" font-size="46" letter-spacing="-1.5">
      type<tspan fill="#10b981">bangla</tspan>
    </text>

    <!-- Domain Pill '.com' (Right beside 'bangla') -->
    <g transform="translate(388, 42)">
      <rect x="0" y="0" width="72" height="36" rx="18" fill="url(#emeraldPillHT)"/>
      <text x="36" y="23" fill="#ffffff" font-family="Inter, system-ui, sans-serif" font-weight="900" font-size="16" text-anchor="middle">.com</text>
    </g>
  </g>
</svg>